<?xml version="1.0" encoding="UTF-8" standalone="no"?>
<!-- Generator: Adobe Illustrator 19.0.0, SVG Export Plug-In . SVG Version: 6.00 Build 0)  -->

<svg
   xmlns:dc="http://purl.org/dc/elements/1.1/"
   xmlns:cc="http://creativecommons.org/ns#"
   xmlns:rdf="http://www.w3.org/1999/02/22-rdf-syntax-ns#"
   xmlns:svg="http://www.w3.org/2000/svg"
   xmlns="http://www.w3.org/2000/svg"
   xmlns:sodipodi="http://sodipodi.sourceforge.net/DTD/sodipodi-0.dtd"
   xmlns:inkscape="http://www.inkscape.org/namespaces/inkscape"
   version="1.1"
   id="Capa_1"
   x="0px"
   y="0px"
   viewBox="0 0 409.6 409.6"
   width="64px" height="64px"
   style="enable-background:new 0 0 409.6 409.6;"
   xml:space="preserve"
   inkscape:version="0.91 r13725"
   sodipodi:docname="actionClient.svg"><metadata
     id="metadata3606"><rdf:RDF><cc:Work
         rdf:about=""><dc:format>image/svg+xml</dc:format><dc:type
           rdf:resource="http://purl.org/dc/dcmitype/StillImage" /></cc:Work></rdf:RDF></metadata><defs
     id="defs3604" /><sodipodi:namedview
     pagecolor="#ffffff"
     bordercolor="#666666"
     borderopacity="1"
     objecttolerance="10"
     gridtolerance="10"
     guidetolerance="10"
     inkscape:pageopacity="0"
     inkscape:pageshadow="2"
     inkscape:window-width="1162"
     inkscape:window-height="884"
     id="namedview3602"
     showgrid="false"
     inkscape:zoom="1.1523437"
     inkscape:cx="103.06305"
     inkscape:cy="202.68742"
     inkscape:window-x="527"
     inkscape:window-y="629"
     inkscape:window-maximized="0"
     inkscape:current-layer="Capa_1" /><circle
     style="fill:#334D5C;"
     cx="204.8"
     cy="204.8"
     r="204.8"
     id="circle3544" /><g
     id="g3572" /><g
     id="g3574" /><g
     id="g3576" /><g
     id="g3578" /><g
     id="g3580" /><g
     id="g3582" /><g
     id="g3584" /><g
     id="g3586" /><g
     id="g3588" /><g
     id="g3590" /><g
     id="g3592" /><g
     id="g3594" /><g
     id="g3596" /><g
     id="g3598" /><g
     id="g3600" /><g
     id="g3481"
     transform="translate(7.0720836,33.229001)"><g
       id="g3471"><g
         id="g3522"><circle
           id="circle3548"
           r="31.27"
           cy="225.75"
           cx="132.99001"
           style="fill:#f6c358" /><path
           id="path3550"
           d="m 185.941,313.315 c 7.219,0 12.7,-6.641 11.199,-13.702 -6.301,-29.642 -32.628,-51.88 -64.148,-51.88 -31.52,0 -57.847,22.237 -64.148,51.88 -1.501,7.061 3.98,13.702 11.199,13.702 l 105.898,0 z"
           style="fill:#fcd462"
           inkscape:connector-curvature="0" /><path
           id="path3552"
           d="m 68.844,299.613 c 6.301,-29.642 32.628,-51.88 64.148,-51.88 l 0,65.582 -52.948,0 c -7.219,0 -12.7,-6.641 -11.2,-13.702 z"
           style="fill:#f6c358"
           inkscape:connector-curvature="0" /><path
           id="path3554"
           d="m 132.993,257.014 c 17.27,0 31.27,-14 31.27,-31.27 0,-17.27 -14,-31.27 -31.27,-31.27 l 0,62.54 z"
           style="fill:#fcd462"
           inkscape:connector-curvature="0" /></g><g
         id="g3528"
         transform="translate(0,0.271695)"><polygon
           transform="translate(0.86779662,-26.901695)"
           id="polygon3556"
           points="269.951,267.698 269.951,238.916 325.993,280.525 269.951,322.133 269.951,294.29 212.21,294.29 212.21,267.698 "
           style="fill:#44c4a1" /><polygon
           transform="translate(0.86779662,-26.901695)"
           id="polygon3558"
           points="212.21,280.525 212.21,294.29 269.951,294.29 269.951,322.133 325.993,280.525 "
           style="fill:#3ea69b" /></g></g><text
       sodipodi:linespacing="125%"
       id="text3420"
       y="83.010597"
       x="90.813858"
       style="font-style:normal;font-weight:normal;font-size:70px;line-height:125%;font-family:sans-serif;letter-spacing:0px;word-spacing:0px;fill:#00ffff;fill-opacity:1;stroke:none;stroke-width:1px;stroke-linecap:butt;stroke-linejoin:miter;stroke-opacity:1"
       xml:space="preserve"><tspan
         y="83.010597"
         x="90.813858"
         id="tspan3422"
         sodipodi:role="line">Action</tspan><tspan
         id="tspan3424"
         y="170.51059"
         x="90.813858"
         sodipodi:role="line">Client</tspan></text>
</g></svg>
