<?xml version="1.0" encoding="iso-8859-1"?>
<!-- Generator: Adobe Illustrator 16.0.0, SVG Export Plug-In . SVG Version: 6.00 Build 0)  -->
<!DOCTYPE svg PUBLIC "-//W3C//DTD SVG 1.1//EN" "http://www.w3.org/Graphics/SVG/1.1/DTD/svg11.dtd">
<svg xmlns="http://www.w3.org/2000/svg" xmlns:xlink="http://www.w3.org/1999/xlink" version="1.1" id="Capa_1" x="0px" y="0px" width="512px" height="512px" viewBox="0 0 593.81 593.809" style="enable-background:new 0 0 593.81 593.809;" xml:space="preserve">
<g>
	<g>
		<path d="M593.806,242.099c0-43.666-35.526-79.19-79.192-79.19H405.007c-39.663,0-73.425,29.621-78.528,68.896    c-0.267,2.05-1.863,4.174-4.076,4.174H49.181c-6.879,0-15.734,3.669-20.6,8.535L5.524,267.57    c-5.621,5.618-7.179,15.22-3.623,22.329l28.011,56.022c2.35,4.703,6.607,7.513,11.383,7.513c3.409,0,6.756-1.469,9.422-4.138    l23.057-23.057c0.646-0.643,1.5-0.998,2.411-0.998c0.912,0,1.769,0.355,2.411,0.998l23.057,23.057    c2.956,2.956,6.885,4.587,11.068,4.587c4.18,0,8.112-1.628,11.068-4.587l23.057-23.057c0.646-0.643,1.5-0.998,2.411-0.998    c0.912,0,1.769,0.355,2.412,0.998l23.057,23.057c4.863,4.865,13.718,8.534,20.597,8.534h127.082c2.213,0,3.81,2.124,4.076,4.174    c5.104,39.275,38.862,68.896,78.528,68.896h109.606c43.666,0,79.193-35.523,79.193-79.19V242.099H593.806z M516.437,223.833    v146.143c0,6.698-5.449,12.148-12.147,12.148s-12.148-5.45-12.148-12.148V223.833c0-6.698,5.45-12.148,12.148-12.148    S516.437,217.135,516.437,223.833z" fill="#d9ad00"/>
	</g>
</g>
<g>
</g>
<g>
</g>
<g>
</g>
<g>
</g>
<g>
</g>
<g>
</g>
<g>
</g>
<g>
</g>
<g>
</g>
<g>
</g>
<g>
</g>
<g>
</g>
<g>
</g>
<g>
</g>
<g>
</g>
</svg>
