<?xml version="1.0" encoding="iso-8859-1"?>
<!-- Generator: Adobe Illustrator 18.1.1, SVG Export Plug-In . SVG Version: 6.00 Build 0)  -->
<svg xmlns="http://www.w3.org/2000/svg" xmlns:xlink="http://www.w3.org/1999/xlink" version="1.1" id="Capa_1" x="0px" y="0px" viewBox="0 0 612 612" style="enable-background:new 0 0 612 612;" xml:space="preserve" width="64px" height="64px">
<g>
	<g>
		<path d="M522.375,89.626c-28.095-28.095-60.818-50.156-97.259-65.569C387.376,8.094,347.3,0,306,0s-81.376,8.094-119.116,24.056    c-8.831,3.735-17.442,7.864-25.823,12.371c-15.277-12.526-34.817-20.046-56.115-20.046c-48.913,0-88.565,39.652-88.565,88.565    c0,21.298,7.52,40.838,20.046,56.115c-4.507,8.381-8.637,16.992-12.371,25.823C8.094,224.623,0.001,264.7,0.001,306    s8.094,81.377,24.056,119.116c15.413,36.441,37.474,69.164,65.569,97.259c28.095,28.095,60.818,50.156,97.259,65.569    C224.624,603.906,264.7,612,306,612s81.376-8.094,119.116-24.056c36.44-15.413,69.164-37.473,97.259-65.569    c28.095-28.095,50.156-60.818,65.569-97.259C603.906,387.377,611.999,347.3,611.999,306s-8.094-81.377-24.056-119.116    C572.531,150.443,550.47,117.721,522.375,89.626z M51.285,101.732c0-7.103,5.758-12.861,12.861-12.861h26.243h55.361    c3.321,0,6.338,1.27,8.62,3.336c2.598,2.353,4.24,5.743,4.24,9.525v6.43c0,7.103-5.758,12.861-12.861,12.861h-25.373H64.145    c-0.626,0-1.237-0.06-1.839-0.147c-6.229-0.894-11.022-6.237-11.022-12.714V101.732z M547.475,407.999    c-13.198,31.203-32.097,59.231-56.171,83.306c-24.074,24.075-52.102,42.973-83.306,56.171    c-32.294,13.659-66.611,20.585-101.999,20.585s-69.705-6.926-101.999-20.585c-31.204-13.198-59.231-32.096-83.306-56.171    c-24.074-24.074-42.973-52.102-56.171-83.306C50.864,375.704,43.939,341.387,43.939,306s6.926-69.704,20.585-101.999    c2.4-5.676,4.995-11.243,7.77-16.705c10.104,4.009,21.12,6.216,32.652,6.216c48.913,0,88.565-39.652,88.565-88.565    c0-11.532-2.206-22.548-6.216-32.652c5.461-2.775,11.029-5.369,16.705-7.77c32.294-13.659,66.611-20.585,101.999-20.585    s69.705,6.926,101.999,20.585c31.204,13.198,59.231,32.096,83.306,56.171c24.074,24.074,42.973,52.102,56.171,83.306    c13.659,32.294,20.585,66.611,20.585,101.999S561.134,375.705,547.475,407.999z" fill="#D80027"/>
		<path d="M306,148.74c-86.852,0-157.26,70.408-157.26,157.261s70.408,157.26,157.26,157.26S463.26,392.853,463.26,306    S392.853,148.74,306,148.74z M374.209,313.572c0,7.103-5.758,12.861-12.861,12.861h-34.915v34.915    c0,7.103-5.758,12.861-12.861,12.861h-15.145c-7.103,0-12.861-5.758-12.861-12.861v-34.915h-34.915    c-7.103,0-12.861-5.758-12.861-12.861v-15.145c0-7.103,5.758-12.861,12.861-12.861h34.915v-34.915    c0-7.103,5.758-12.861,12.861-12.861h15.145c7.103,0,12.861,5.758,12.861,12.861v34.915h34.915    c7.103,0,12.861,5.758,12.861,12.861V313.572z" fill="#D80027"/>
	</g>
</g>
<g>
</g>
<g>
</g>
<g>
</g>
<g>
</g>
<g>
</g>
<g>
</g>
<g>
</g>
<g>
</g>
<g>
</g>
<g>
</g>
<g>
</g>
<g>
</g>
<g>
</g>
<g>
</g>
<g>
</g>
</svg>
