<?xml version="1.0" encoding="iso-8859-1"?>
<!-- Generator: Adobe Illustrator 18.0.0, SVG Export Plug-In . SVG Version: 6.00 Build 0)  -->
<!DOCTYPE svg PUBLIC "-//W3C//DTD SVG 1.1//EN" "http://www.w3.org/Graphics/SVG/1.1/DTD/svg11.dtd">
<svg xmlns="http://www.w3.org/2000/svg" xmlns:xlink="http://www.w3.org/1999/xlink" version="1.1" id="Capa_1" x="0px" y="0px" width="64px" height="64px" viewBox="0 0 462.478 462.478" style="enable-background:new 0 0 462.478 462.478;" xml:space="preserve" width="64px" height="64px">
<g>
	<path d="M241.561,380.726c13.548-13.549,13.548-35.594,0-49.143l-17.5-17.5c-3.905-3.905-10.237-3.905-14.143,0l-17.5,17.5   c-13.548,13.549-13.548,35.594,0,49.143c6.774,6.774,15.673,10.161,24.571,10.161S234.787,387.5,241.561,380.726z M206.561,345.726   l10.429-10.429l10.429,10.429c5.751,5.75,5.751,15.107,0,20.857c-5.75,5.751-15.107,5.751-20.857,0   C200.81,360.833,200.81,351.477,206.561,345.726z" fill="#D80027"/>
	<path d="M149.994,204.319c0,36.942,30.054,66.996,66.996,66.996s66.996-30.054,66.996-66.996c0-5.523-4.477-10-10-10H159.994   C154.471,194.319,149.994,198.796,149.994,204.319z M262.915,214.319c-4.596,21.126-23.442,36.996-45.925,36.996   s-41.329-15.87-45.925-36.996H262.915z" fill="#D80027"/>
	<path d="M352.733,0c-5.523,0-10,4.477-10,10v25.998h-90.245V20.5c0-5.523-4.477-10-10-10h-50.998c-5.523,0-10,4.477-10,10v15.499   h-11.749c-5.523,0-10,4.477-10,10s4.477,10,10,10h11.749v58.041c-16.58,6.552-31.334,17.751-42.095,32.073   c-12.693,16.895-19.402,37.022-19.402,58.207c0,53.483,43.512,96.996,96.996,96.996s96.996-43.512,96.996-96.996   c0-21.185-6.709-41.313-19.402-58.207c-10.76-14.322-25.515-25.521-42.095-32.073V55.998h90.245v386.48h-63.996V405.98   c0-5.523-4.477-10-10-10H165.242c-5.523,0-10,4.477-10,10v36.498h-45.497c-5.523,0-10,4.477-10,10s4.477,10,10,10h242.988   c5.523,0,10-4.477,10-10V10C362.733,4.477,358.256,0,352.733,0z M201.491,30.5h30.998v5.499h-30.998V30.5z M239.561,130.687   c15.423,4.722,29.285,14.466,39.032,27.439c10.069,13.403,15.392,29.376,15.392,46.193c0,42.456-34.54,76.996-76.996,76.996   s-76.996-34.54-76.996-76.996c0-16.817,5.322-32.791,15.392-46.193c9.747-12.973,23.608-22.718,39.032-27.439   c4.203-1.287,7.073-5.167,7.073-9.562V55.998h30.998v65.126C232.488,125.52,235.358,129.4,239.561,130.687z M175.242,442.478   V415.98h83.495v26.498H175.242z" fill="#D80027"/>
</g>
<g>
</g>
<g>
</g>
<g>
</g>
<g>
</g>
<g>
</g>
<g>
</g>
<g>
</g>
<g>
</g>
<g>
</g>
<g>
</g>
<g>
</g>
<g>
</g>
<g>
</g>
<g>
</g>
<g>
</g>
</svg>
