<?xml version="1.0" encoding="iso-8859-1"?>
<!-- Generator: Adobe Illustrator 18.0.0, SVG Export Plug-In . SVG Version: 6.00 Build 0)  -->
<!DOCTYPE svg PUBLIC "-//W3C//DTD SVG 1.1//EN" "http://www.w3.org/Graphics/SVG/1.1/DTD/svg11.dtd">
<svg xmlns="http://www.w3.org/2000/svg" xmlns:xlink="http://www.w3.org/1999/xlink" version="1.1" id="Capa_1" x="0px" y="0px" viewBox="0 0 464 464" style="enable-background:new 0 0 464 464;" xml:space="preserve" width="64px" height="64px">
<g>
	<path d="M71.5,396c17.92,0,32.5-14.579,32.5-32.5V102c0-5.523-4.477-10-10-10H49c-5.523,0-10,4.477-10,10v261.5   C39,381.421,53.58,396,71.5,396z M59,112h25v251.5c0,6.893-5.607,12.5-12.5,12.5S59,370.393,59,363.5V112z" fill="#933EC5"/>
	<path d="M133,41H10C4.477,41,0,45.477,0,51s4.477,10,10,10h2v302.5c0,32.808,26.692,59.5,59.5,59.5c32.808,0,59.5-26.691,59.5-59.5   V61h2c5.523,0,10-4.477,10-10S138.523,41,133,41z M111,363.5c0,21.78-17.719,39.5-39.5,39.5h0C49.72,403,32,385.281,32,363.5V61h79   V363.5z" fill="#933EC5"/>
	<path d="M232,396c17.92,0,32.5-14.579,32.5-32.5V169c0-5.523-4.478-10-10-10h-45c-5.523,0-10,4.477-10,10v194.5   C199.5,381.421,214.08,396,232,396z M219.5,179h25v184.5c0,6.893-5.607,12.5-12.5,12.5c-6.893,0-12.5-5.607-12.5-12.5V179z" fill="#933EC5"/>
	<path d="M293.5,41h-123c-5.523,0-10,4.477-10,10s4.477,10,10,10h2v302.5c0,32.808,26.692,59.5,59.5,59.5s59.5-26.691,59.5-59.5V61   h2c5.522,0,10-4.477,10-10S299.023,41,293.5,41z M271.5,363.5c0,21.78-17.72,39.5-39.5,39.5h0c-21.78,0-39.5-17.719-39.5-39.5V61   h79V363.5z" fill="#933EC5"/>
	<path d="M392.5,396c17.921,0,32.5-14.579,32.5-32.5V267c0-5.523-4.478-10-10-10h-45c-5.522,0-10,4.477-10,10v96.5   C360,381.421,374.58,396,392.5,396z M380,277h25v86.5c0,6.893-5.607,12.5-12.5,12.5s-12.5-5.607-12.5-12.5V277z" fill="#933EC5"/>
	<path d="M454,41H331c-5.522,0-10,4.477-10,10s4.478,10,10,10h2v302.5c0,32.808,26.691,59.5,59.5,59.5s59.5-26.691,59.5-59.5V61h2   c5.522,0,10-4.477,10-10S459.523,41,454,41z M432,363.5c0,21.78-17.72,39.5-39.5,39.5S353,385.281,353,363.5V61h79V363.5z" fill="#933EC5"/>
</g>
<g>
</g>
<g>
</g>
<g>
</g>
<g>
</g>
<g>
</g>
<g>
</g>
<g>
</g>
<g>
</g>
<g>
</g>
<g>
</g>
<g>
</g>
<g>
</g>
<g>
</g>
<g>
</g>
<g>
</g>
</svg>
