<?xml version="1.0" encoding="iso-8859-1"?>
<!-- Generator: Adobe Illustrator 18.0.0, SVG Export Plug-In . SVG Version: 6.00 Build 0)  -->
<!DOCTYPE svg PUBLIC "-//W3C//DTD SVG 1.1//EN" "http://www.w3.org/Graphics/SVG/1.1/DTD/svg11.dtd">
<svg xmlns="http://www.w3.org/2000/svg" xmlns:xlink="http://www.w3.org/1999/xlink" version="1.1" id="Capa_1" x="0px" y="0px" viewBox="0 0 370.001 370.001" style="enable-background:new 0 0 370.001 370.001;" xml:space="preserve" width="64px" height="64px">
<g>
	<path d="M362.501,321.474h-12.307l-18.402-114.541c-0.584-3.637-3.723-6.311-7.405-6.311h-20.154V66.572   c3.798-3.483,6.198-8.467,6.198-14.013c0-10.494-8.538-19.032-19.033-19.032h-43.103c-10.494,0-19.032,8.538-19.032,19.032   c0,5.547,2.399,10.531,6.198,14.013v134.051h-16.072V66.571c3.797-3.481,6.197-8.466,6.197-14.012   c0-10.494-8.538-19.032-19.033-19.032h-43.104c-10.494,0-19.032,8.538-19.032,19.032c0,5.546,2.4,10.53,6.198,14.013v134.051   h-16.073V66.572c3.798-3.483,6.198-8.467,6.198-14.013c0-10.494-8.538-19.032-19.033-19.032H78.603   c-10.494,0-19.032,8.538-19.032,19.032c0,5.547,2.399,10.531,6.198,14.013v134.051H45.614c-3.684,0-6.821,2.674-7.406,6.311   L19.806,321.474H7.5c-4.142,0-7.5,3.357-7.5,7.5s3.358,7.5,7.5,7.5h355.001c4.142,0,7.5-3.357,7.5-7.5   S366.643,321.474,362.501,321.474z M289.232,115.05H250.46V71.591h38.772V115.05z M248.294,48.527h43.103   c2.224,0,4.033,1.809,4.033,4.032c0,2.224-1.81,4.032-4.033,4.032h-43.103c-2.223,0-4.032-1.809-4.032-4.032   C244.262,50.335,246.071,48.527,248.294,48.527z M250.46,130.05h38.772v70.572H250.46V130.05z M250.46,215.623h38.772v49.861   c0,10.989-8.696,19.93-19.386,19.93c-10.689,0-19.387-8.94-19.387-19.93V215.623z M204.388,143.156h-38.773V71.591h38.773V143.156z    M163.448,48.527h43.104c2.224,0,4.033,1.809,4.033,4.032c0,2.224-1.81,4.032-4.033,4.032h-43.104   c-2.223,0-4.032-1.809-4.032-4.032C159.416,50.335,161.226,48.527,163.448,48.527z M165.614,158.156h38.773v42.467h-38.773V158.156   z M165.614,215.623h38.773v49.861c0,10.989-8.697,19.93-19.387,19.93c-10.69,0-19.387-8.94-19.387-19.93V215.623z M119.541,98.187   H80.769V71.591h38.772V98.187z M78.603,48.527h43.104c2.224,0,4.033,1.809,4.033,4.032c0,2.224-1.81,4.032-4.033,4.032H78.603   c-2.223,0-4.032-1.809-4.032-4.032C74.57,50.335,76.38,48.527,78.603,48.527z M80.769,113.187h38.772v87.436H80.769V113.187z    M80.769,215.623h38.772v49.861c0,10.989-8.696,19.93-19.386,19.93s-19.387-8.94-19.387-19.93V215.623z M34.999,321.474   l17.006-105.852h13.764v49.861c0,19.261,15.426,34.93,34.387,34.93c18.96,0,34.386-15.669,34.386-34.93v-49.861h16.073v49.861   c0,19.261,15.426,34.93,34.387,34.93s34.387-15.669,34.387-34.93v-49.861h16.072v49.861c0,19.261,15.426,34.93,34.387,34.93   c18.96,0,34.386-15.669,34.386-34.93v-49.861h13.763l17.006,105.852H34.999z" fill="#D80027"/>
</g>
<g>
</g>
<g>
</g>
<g>
</g>
<g>
</g>
<g>
</g>
<g>
</g>
<g>
</g>
<g>
</g>
<g>
</g>
<g>
</g>
<g>
</g>
<g>
</g>
<g>
</g>
<g>
</g>
<g>
</g>
</svg>
