<?xml version="1.0" encoding="iso-8859-1"?>
<!-- Generator: Adobe Illustrator 18.0.0, SVG Export Plug-In . SVG Version: 6.00 Build 0)  -->
<!DOCTYPE svg PUBLIC "-//W3C//DTD SVG 1.1//EN" "http://www.w3.org/Graphics/SVG/1.1/DTD/svg11.dtd">
<svg xmlns="http://www.w3.org/2000/svg" xmlns:xlink="http://www.w3.org/1999/xlink" version="1.1" id="Capa_1" x="0px" y="0px" width="64px" height="64px" viewBox="0 0 476.056 476.056" style="enable-background:new 0 0 476.056 476.056;" xml:space="preserve" width="64px" height="64px">
<g>
	<rect x="163.515" y="163.515" width="149.026" height="149.026" fill="#3dc4b9"/>
	<path d="M459.498,254.586c9.151,0,16.558-7.415,16.558-16.559c0-9.143-7.406-16.559-16.558-16.559h-89.002v-16.558h89.002   c9.151,0,16.558-7.415,16.558-16.559c0-9.143-7.406-16.559-16.558-16.559h-89.002v-49.676c0-9.144-7.407-16.559-16.559-16.559   h-49.675V16.558c0-9.144-7.407-16.558-16.56-16.558c-9.151,0-16.558,7.415-16.558,16.558v89.002h-16.559V16.558   C254.587,7.415,247.18,0,238.028,0c-9.152,0-16.559,7.415-16.559,16.558v89.002h-16.559V16.558C204.911,7.415,197.504,0,188.352,0   c-9.152,0-16.559,7.415-16.559,16.558v89.002h-49.676c-9.151,0-16.559,7.415-16.559,16.559v49.676H16.559   C7.406,171.794,0,179.209,0,188.352c0,9.144,7.406,16.559,16.559,16.559h89.001v16.558H16.559C7.406,221.469,0,228.884,0,238.027   c0,9.144,7.406,16.559,16.559,16.559h89.001v16.559H16.559C7.406,271.145,0,278.56,0,287.703c0,9.144,7.406,16.559,16.559,16.559   h89.001v49.676c0,9.143,7.407,16.559,16.559,16.559h49.676v89.001c0,9.145,7.406,16.559,16.559,16.559   c9.151,0,16.559-7.414,16.559-16.559v-89.001h16.559v89.001c0,9.145,7.406,16.559,16.559,16.559   c9.151,0,16.559-7.414,16.559-16.559v-89.001h16.559v89.001c0,9.145,7.406,16.559,16.558,16.559c9.152,0,16.56-7.414,16.56-16.559   v-89.001h49.675c9.151,0,16.559-7.415,16.559-16.559v-49.676h89.002c9.151,0,16.558-7.415,16.558-16.559   c0-9.143-7.406-16.559-16.558-16.559h-89.002v-16.559H459.498z M337.379,337.379H138.677V138.677h198.702V337.379z" fill="#3dc4b9"/>
</g>
<g>
</g>
<g>
</g>
<g>
</g>
<g>
</g>
<g>
</g>
<g>
</g>
<g>
</g>
<g>
</g>
<g>
</g>
<g>
</g>
<g>
</g>
<g>
</g>
<g>
</g>
<g>
</g>
<g>
</g>
</svg>
