<?xml version="1.0" encoding="iso-8859-1"?>
<!-- Generator: Adobe Illustrator 17.1.0, SVG Export Plug-In . SVG Version: 6.00 Build 0)  -->
<!DOCTYPE svg PUBLIC "-//W3C//DTD SVG 1.1//EN" "http://www.w3.org/Graphics/SVG/1.1/DTD/svg11.dtd">
<svg xmlns="http://www.w3.org/2000/svg" xmlns:xlink="http://www.w3.org/1999/xlink" version="1.1" id="Capa_1" x="0px" y="0px" width="64px" height="64px" viewBox="0 0 511 511" style="enable-background:new 0 0 511 511;" xml:space="preserve" width="64px" height="64px">
<g>
	<path d="M471.5,40h-280h-32h-120C17.72,40,0,57.72,0,79.5v112v32v32v32v144C0,453.28,17.72,471,39.5,471h392h32h8   c21.78,0,39.5-17.72,39.5-39.5v-208v-32v-112C511,57.72,493.28,40,471.5,40z M496,280h-57v-17h57V280z M496,152h-89v-17h89V152z    M496,79.5V120h-96.5c-4.142,0-7.5,3.358-7.5,7.5v32c0,4.142,3.358,7.5,7.5,7.5H496v17H198.999L199,55h89v32.5   c0,4.142,3.358,7.5,7.5,7.5h64c4.142,0,7.5-3.358,7.5-7.5V55h25v32.5c0,4.142,3.358,7.5,7.5,7.5h72c4.142,0,7.5-3.358,7.5-7.5   V56.179C488.851,59.355,496,68.606,496,79.5z M303,55h49v25h-49V55z M407,55h57v25h-57V55z M95,55h25v25H95V55z M39.5,55H80v32.5   c0,4.142,3.358,7.5,7.5,7.5h40c4.142,0,7.5-3.358,7.5-7.5V55h17v129H15v-17h40.5c4.142,0,7.5-3.358,7.5-7.5v-40   c0-4.142-3.358-7.5-7.5-7.5H15V79.5C15,65.991,25.991,55,39.5,55z M76.394,263L120,306.606V400h-17v-80.497   c0-0.248-0.013-0.496-0.037-0.744c-0.01-0.106-0.031-0.21-0.045-0.315c-0.02-0.137-0.036-0.275-0.063-0.411   c-0.024-0.122-0.058-0.24-0.088-0.36c-0.029-0.117-0.055-0.235-0.09-0.351c-0.036-0.118-0.08-0.231-0.121-0.347   c-0.041-0.116-0.079-0.232-0.127-0.346c-0.045-0.108-0.098-0.212-0.147-0.317c-0.055-0.116-0.106-0.233-0.167-0.347   c-0.055-0.103-0.118-0.2-0.177-0.3c-0.066-0.11-0.128-0.222-0.2-0.329c-0.075-0.112-0.158-0.217-0.239-0.324   c-0.066-0.088-0.127-0.179-0.198-0.264c-0.157-0.192-0.323-0.376-0.498-0.551l-31.998-31.997c-0.175-0.175-0.36-0.341-0.552-0.499   c-0.083-0.069-0.172-0.128-0.257-0.192c-0.11-0.083-0.218-0.168-0.332-0.244c-0.104-0.069-0.211-0.129-0.318-0.193   c-0.104-0.062-0.205-0.127-0.313-0.185c-0.108-0.058-0.219-0.107-0.329-0.159c-0.112-0.053-0.221-0.108-0.336-0.156   c-0.107-0.044-0.216-0.08-0.324-0.119c-0.122-0.044-0.243-0.091-0.369-0.129c-0.107-0.032-0.216-0.056-0.325-0.083   c-0.129-0.033-0.256-0.069-0.387-0.095c-0.122-0.024-0.245-0.038-0.367-0.056c-0.12-0.018-0.237-0.04-0.359-0.052   c-0.216-0.021-0.432-0.03-0.648-0.033c-0.03,0-0.059-0.005-0.089-0.005H15v-17H76.394z M15,343h25v57H15V343z M15,127h33v25H15V127   z M15,431.5V415h32.5c4.142,0,7.5-3.358,7.5-7.5v-72c0-4.142-3.358-7.5-7.5-7.5H15v-33h45.394L88,322.606V407.5   c0,4.142,3.358,7.5,7.5,7.5h32c4.142,0,7.5-3.358,7.5-7.5V303.503c0-0.248-0.013-0.496-0.037-0.744   c-0.01-0.106-0.031-0.21-0.045-0.315c-0.02-0.137-0.036-0.275-0.063-0.411c-0.024-0.122-0.058-0.24-0.088-0.36   c-0.029-0.117-0.055-0.235-0.09-0.351c-0.036-0.118-0.08-0.231-0.121-0.347c-0.041-0.116-0.079-0.232-0.127-0.346   c-0.045-0.108-0.098-0.212-0.147-0.317c-0.055-0.116-0.106-0.233-0.167-0.347c-0.055-0.103-0.118-0.2-0.177-0.3   c-0.066-0.11-0.128-0.222-0.2-0.329c-0.075-0.112-0.158-0.217-0.239-0.324c-0.066-0.088-0.127-0.179-0.198-0.264   c-0.157-0.192-0.323-0.376-0.498-0.551l-47.998-47.997c-0.175-0.175-0.36-0.341-0.552-0.499c-0.083-0.069-0.172-0.128-0.257-0.192   c-0.11-0.083-0.218-0.168-0.332-0.244c-0.104-0.069-0.211-0.129-0.318-0.193c-0.104-0.062-0.205-0.127-0.313-0.185   c-0.108-0.058-0.219-0.107-0.329-0.159c-0.112-0.053-0.221-0.108-0.336-0.156c-0.107-0.044-0.216-0.08-0.324-0.119   c-0.122-0.044-0.243-0.091-0.369-0.129c-0.107-0.032-0.216-0.056-0.325-0.083c-0.129-0.033-0.256-0.069-0.387-0.095   c-0.122-0.024-0.245-0.038-0.367-0.056c-0.12-0.018-0.237-0.04-0.359-0.052c-0.216-0.021-0.432-0.03-0.648-0.033   c-0.03,0-0.059-0.005-0.089-0.005H15v-17h137.001L152,456H39.5C25.991,456,15,445.009,15,431.5z M199,456V231.003L338.263,231   l82.499,225H199z M436.738,456l-86.195-235.082c-1.083-2.954-3.895-4.918-7.042-4.918L191.5,216.003c-4.142,0-7.5,3.358-7.5,7.5   V456h-17l0.001-232.5c0-1.989-0.79-3.897-2.197-5.303c-1.406-1.407-3.314-2.197-5.303-2.197H15v-17h144.5   c4.142,0,7.5-3.358,7.5-7.5V55h17l-0.001,136.5c0,1.989,0.79,3.897,2.197,5.303c1.406,1.407,3.314,2.197,5.303,2.197H496v17H375.5   c-2.45,0-4.746,1.197-6.149,3.206c-1.403,2.009-1.736,4.576-0.893,6.876L452.762,456H436.738z M471.5,456h-2.762l-82.5-225H496v17   h-64.5c-4.142,0-7.5,3.358-7.5,7.5v32c0,4.142,3.358,7.5,7.5,7.5H496v136.5C496,445.009,485.009,456,471.5,456z" fill="#933EC5"/>
	<path d="M335,287.5v-32c0-4.142-3.358-7.5-7.5-7.5h-80c-17.369,0-31.5,14.131-31.5,31.5v56c0,4.142,3.358,7.5,7.5,7.5h32   c4.142,0,7.5-3.358,7.5-7.5V295h64.5C331.642,295,335,291.642,335,287.5z M320,280h-64.5c-4.142,0-7.5,3.358-7.5,7.5V328h-17v-48.5   c0-9.098,7.402-16.5,16.5-16.5H320V280z" fill="#933EC5"/>
	<path d="M255.5,360h-32c-4.142,0-7.5,3.358-7.5,7.5v64c0,4.142,3.358,7.5,7.5,7.5h32c4.142,0,7.5-3.358,7.5-7.5v-64   C263,363.358,259.642,360,255.5,360z M248,424h-17v-49h17V424z" fill="#933EC5"/>
	<path d="M359.5,120H263V95.5c0-4.142-3.358-7.5-7.5-7.5h-32c-4.142,0-7.5,3.358-7.5,7.5v40c0,17.369,14.131,31.5,31.5,31.5h112   c4.142,0,7.5-3.358,7.5-7.5v-32C367,123.358,363.642,120,359.5,120z M352,152H247.5c-9.098,0-16.5-7.402-16.5-16.5V103h17v24.5   c0,4.142,3.358,7.5,7.5,7.5H352V152z" fill="#933EC5"/>
	<path d="M296,351.5v78c0,5.238,4.262,9.5,9.5,9.5h46c4.142,0,7.5-3.358,7.5-7.5v-78c0-5.238-4.262-9.5-9.5-9.5h-46   C299.358,344,296,347.358,296,351.5z M311,359h33v65h-33V359z" fill="#933EC5"/>
	<path d="M87.5,167h40c4.142,0,7.5-3.358,7.5-7.5v-40c0-4.142-3.358-7.5-7.5-7.5h-40c-4.142,0-7.5,3.358-7.5,7.5v40   C80,163.642,83.358,167,87.5,167z M95,127h25v25H95V127z" fill="#933EC5"/>
</g>
<g>
</g>
<g>
</g>
<g>
</g>
<g>
</g>
<g>
</g>
<g>
</g>
<g>
</g>
<g>
</g>
<g>
</g>
<g>
</g>
<g>
</g>
<g>
</g>
<g>
</g>
<g>
</g>
<g>
</g>
</svg>
