<?xml version="1.0" encoding="iso-8859-1"?>
<!-- Generator: Adobe Illustrator 17.1.0, SVG Export Plug-In . SVG Version: 6.00 Build 0)  -->
<!DOCTYPE svg PUBLIC "-//W3C//DTD SVG 1.1//EN" "http://www.w3.org/Graphics/SVG/1.1/DTD/svg11.dtd">
<svg xmlns="http://www.w3.org/2000/svg" xmlns:xlink="http://www.w3.org/1999/xlink" version="1.1" id="Capa_1" x="0px" y="0px" width="64px" height="64px" viewBox="0 0 220.993 220.993" style="enable-background:new 0 0 220.993 220.993;" xml:space="preserve">
<path d="M201.286,114.957c-12.72,12.719-29.63,19.724-47.617,19.724c-11.401,0-22.365-2.823-32.108-8.123l-14.491,12.5  c-0.71,7.601-4.482,15.616-11.122,22.256c-0.402,0.402-0.812,0.791-1.226,1.173l2.207,22.281l5.337,5.337l19.191-19.192  c2.515-2.515,5.859-3.901,9.418-3.901c3.557,0,6.901,1.385,9.417,3.9l0.1,0.1c2.499,2.499,3.885,5.844,3.885,9.402  c0,3.557-1.385,6.902-3.9,9.417l-28.965,28.965c-1.464,1.464-3.384,2.197-5.303,2.197s-3.839-0.732-5.303-2.197l-8.312-8.312  c-1.407-1.406-2.197-3.314-2.197-5.303c0-1.592,0.513-3.126,1.436-4.399l-7.301-7.301c-0.001-0.001-0.003-0.003-0.004-0.004  l-12.844-12.845l-10.812-10.812c-0.001-0.001-0.002-0.002-0.003-0.003l-4.789-4.79l-4.494-4.494  c-0.001-0.001-0.001-0.001-0.002-0.002l-5.094-5.094c-0.001-0.001-0.001-0.001-0.002-0.002l-6.012-6.012l-20.149-20.149  c-1.309,0.951-2.851,1.435-4.398,1.435c-1.919,0-3.839-0.732-5.303-2.197l-8.312-8.312c-1.407-1.406-2.197-3.314-2.197-5.303  s0.79-3.897,2.197-5.303l28.965-28.965c2.516-2.516,5.86-3.901,9.418-3.901c3.557,0,6.902,1.385,9.417,3.901l0.083,0.083  c2.516,2.515,3.901,5.859,3.901,9.417s-1.385,6.903-3.901,9.418l-19.191,19.191l5.337,5.337l22.298,2.209  c0.38-0.412,0.757-0.826,1.157-1.227c6.384-6.384,14.344-10.315,22.201-11.059l12.576-14.58  c-13.817-25.524-9.967-58.153,11.579-79.7C118.771,7.005,135.681,0,153.668,0s34.897,7.005,47.617,19.724  C227.542,45.979,227.542,88.701,201.286,114.957z" fill="#006DF0"/>
<g>
</g>
<g>
</g>
<g>
</g>
<g>
</g>
<g>
</g>
<g>
</g>
<g>
</g>
<g>
</g>
<g>
</g>
<g>
</g>
<g>
</g>
<g>
</g>
<g>
</g>
<g>
</g>
<g>
</g>
</svg>
