<?xml version="1.0" encoding="iso-8859-1"?>
<!-- Generator: Adobe Illustrator 19.0.0, SVG Export Plug-In . SVG Version: 6.00 Build 0)  -->
<svg version="1.1" id="Capa_1" xmlns="http://www.w3.org/2000/svg" xmlns:xlink="http://www.w3.org/1999/xlink" x="0px" y="0px" width="64px" height="64px" width="64px" height="64px"
	 viewBox="0 0 470 470" style="enable-background:new 0 0 470 470;" xml:space="preserve">
<g>
	<path style="fill:#B68B4E;" d="M421.802,76.815H409c-4.143,0-7.5-3.358-7.5-7.5s3.357-7.5,7.5-7.5h12.802v-15H386.5v66.37h35.302
		V76.815z"/>
	<rect x="48.198" y="46.815" style="fill:#B68B4E;" width="35.303" height="66.37"/>
	<path style="fill:#B68B4E;" d="M260.667,76.815c-4.143,0-7.5-3.358-7.5-7.5s3.357-7.5,7.5-7.5H371.5v-15h-273v66.37h273v-36.37
		H260.667z"/>
	<path style="fill:#34150C;" d="M429.302,31.815H386.5V7.5c0-4.142-3.357-7.5-7.5-7.5s-7.5,3.358-7.5,7.5v24.315h-273V7.5
		C98.5,3.358,95.143,0,91,0s-7.5,3.358-7.5,7.5v24.315H40.698c-4.143,0-7.5,3.358-7.5,7.5v81.37c0,4.142,3.357,7.5,7.5,7.5H83.5
		v58.63H40.698c-4.143,0-7.5,3.358-7.5,7.5v18.974c0,1.837,0.674,3.61,1.895,4.983l3.562,4.007l-3.562,4.007
		c-1.221,1.373-1.895,3.146-1.895,4.983v44.416c0,4.142,3.357,7.5,7.5,7.5H83.5v58.63H40.698c-4.143,0-7.5,3.358-7.5,7.5v81.37
		c0,4.142,3.357,7.5,7.5,7.5H83.5V462.5c0,4.142,3.357,7.5,7.5,7.5s7.5-3.358,7.5-7.5v-24.315h273V462.5c0,4.142,3.357,7.5,7.5,7.5
		s7.5-3.358,7.5-7.5v-24.315h42.802c4.143,0,7.5-3.358,7.5-7.5V403.71c0-1.837-0.674-3.61-1.895-4.983l-3.562-4.007l3.562-4.007
		c1.221-1.373,1.895-3.146,1.895-4.983v-36.416c0-4.142-3.357-7.5-7.5-7.5H386.5v-58.63h42.802c4.143,0,7.5-3.358,7.5-7.5v-81.37
		c0-4.142-3.357-7.5-7.5-7.5H386.5v-58.63h42.802c4.143,0,7.5-3.358,7.5-7.5v-81.37C436.802,35.173,433.445,31.815,429.302,31.815z
		 M98.5,113.185v-66.37h273v15H260.667c-4.143,0-7.5,3.358-7.5,7.5s3.357,7.5,7.5,7.5H371.5v36.37H98.5z M48.198,46.815H83.5v66.37
		H48.198V46.815z M386.5,46.815h35.302v15H409c-4.143,0-7.5,3.358-7.5,7.5s3.357,7.5,7.5,7.5h12.802v36.37H386.5V46.815z
		 M421.802,268.185H386.5v-66.37h35.302V268.185z M371.5,268.185h-273v-66.37h273V268.185z M48.198,234.121l3.865-4.348
		c0.042,0.001,0.084,0.006,0.126,0.006H61c4.143,0,7.5-3.358,7.5-7.5s-3.357-7.5-7.5-7.5h-8.812c-0.043,0-0.084,0.005-0.126,0.006
		l-3.865-4.348v-8.623H83.5v66.37H48.198V234.121z M421.802,382.879l-3.859,4.341H409c-4.143,0-7.5,3.358-7.5,7.5s3.357,7.5,7.5,7.5
		h8.943l3.859,4.341v16.623H386.5v-66.37h35.302V382.879z M371.5,387.221h-27.156c-4.143,0-7.5,3.358-7.5,7.5s3.357,7.5,7.5,7.5
		H371.5v20.964h-273v-66.37h273V387.221z M48.198,408.185H61c4.143,0,7.5-3.358,7.5-7.5s-3.357-7.5-7.5-7.5H48.198v-36.37H83.5
		v66.37H48.198V408.185z M371.5,341.815h-273v-58.63h273V341.815z M371.5,186.815h-273v-58.63h273V186.815z"/>
	<path style="fill:#C5A271;" d="M386.5,423.185h35.302v-16.623l-3.859-4.341H409c-4.143,0-7.5-3.358-7.5-7.5s3.357-7.5,7.5-7.5
		h8.943l3.859-4.341v-26.064H386.5V423.185z"/>
	<path style="fill:#C5A271;" d="M83.5,356.815H48.198v36.37H61c4.143,0,7.5,3.358,7.5,7.5s-3.357,7.5-7.5,7.5H48.198v15H83.5
		V356.815z"/>
	<path style="fill:#C5A271;" d="M98.5,423.185h273v-20.964h-27.156c-4.143,0-7.5-3.358-7.5-7.5s3.357-7.5,7.5-7.5H371.5v-30.406
		h-273V423.185z"/>
	<rect x="386.5" y="201.815" style="fill:#C5A271;" width="35.302" height="66.37"/>
	<rect x="98.5" y="201.815" style="fill:#C5A271;" width="273" height="66.37"/>
	<path style="fill:#C5A271;" d="M83.5,201.815H48.198v8.623l3.865,4.348c0.042-0.001,0.084-0.006,0.126-0.006H61
		c4.143,0,7.5,3.358,7.5,7.5s-3.357,7.5-7.5,7.5h-8.812c-0.043,0-0.084-0.005-0.126-0.006l-3.865,4.348v34.064H83.5V201.815z"/>
</g>
<g>
</g>
<g>
</g>
<g>
</g>
<g>
</g>
<g>
</g>
<g>
</g>
<g>
</g>
<g>
</g>
<g>
</g>
<g>
</g>
<g>
</g>
<g>
</g>
<g>
</g>
<g>
</g>
<g>
</g>
</svg>
